<mxfile host="app.diagrams.net" agent="Mozilla/5.0 (Windows NT 10.0; Win64; x64) AppleWebKit/537.36 (KHTML, like Gecko) Chrome/140.0.0.0 Safari/537.36" version="28.2.5">
  <diagram name="Page-1" id="86LVQj7V5jCD9-ZFzs1M">
    <mxGraphModel dx="3203" dy="2372" grid="1" gridSize="10" guides="1" tooltips="1" connect="1" arrows="1" fold="1" page="1" pageScale="1" pageWidth="850" pageHeight="1100" math="0" shadow="0">
      <root>
        <mxCell id="0" />
        <mxCell id="1" parent="0" />
        <mxCell id="S8Du6sC95tKZxM511aaH-36" value="" style="rounded=0;whiteSpace=wrap;html=1;" vertex="1" parent="1">
          <mxGeometry x="320" y="-400" width="1000" height="1480" as="geometry" />
        </mxCell>
        <mxCell id="S8Du6sC95tKZxM511aaH-70" value="" style="rounded=0;whiteSpace=wrap;html=1;fillColor=none;" vertex="1" parent="1">
          <mxGeometry x="1040" y="-280" width="200" height="490" as="geometry" />
        </mxCell>
        <mxCell id="S8Du6sC95tKZxM511aaH-67" value="" style="rounded=0;whiteSpace=wrap;html=1;fillColor=none;" vertex="1" parent="1">
          <mxGeometry x="810" y="-370" width="200" height="490" as="geometry" />
        </mxCell>
        <mxCell id="S8Du6sC95tKZxM511aaH-39" value="" style="rounded=0;whiteSpace=wrap;html=1;" vertex="1" parent="1">
          <mxGeometry x="-560" y="-400" width="680" height="1480" as="geometry" />
        </mxCell>
        <mxCell id="S8Du6sC95tKZxM511aaH-10" style="edgeStyle=orthogonalEdgeStyle;rounded=0;orthogonalLoop=1;jettySize=auto;html=1;entryX=0;entryY=0.5;entryDx=0;entryDy=0;" edge="1" parent="1" source="S8Du6sC95tKZxM511aaH-1" target="S8Du6sC95tKZxM511aaH-7">
          <mxGeometry relative="1" as="geometry" />
        </mxCell>
        <mxCell id="S8Du6sC95tKZxM511aaH-25" style="edgeStyle=orthogonalEdgeStyle;rounded=0;orthogonalLoop=1;jettySize=auto;html=1;entryX=0;entryY=0.5;entryDx=0;entryDy=0;" edge="1" parent="1" source="S8Du6sC95tKZxM511aaH-1" target="S8Du6sC95tKZxM511aaH-9">
          <mxGeometry relative="1" as="geometry" />
        </mxCell>
        <mxCell id="S8Du6sC95tKZxM511aaH-34" style="edgeStyle=orthogonalEdgeStyle;rounded=0;orthogonalLoop=1;jettySize=auto;html=1;entryX=1;entryY=0.5;entryDx=0;entryDy=0;" edge="1" parent="1" source="S8Du6sC95tKZxM511aaH-1" target="S8Du6sC95tKZxM511aaH-4">
          <mxGeometry relative="1" as="geometry">
            <Array as="points">
              <mxPoint x="80" y="360" />
              <mxPoint x="80" y="40" />
            </Array>
          </mxGeometry>
        </mxCell>
        <mxCell id="S8Du6sC95tKZxM511aaH-73" style="edgeStyle=orthogonalEdgeStyle;rounded=0;orthogonalLoop=1;jettySize=auto;html=1;entryX=1;entryY=0.5;entryDx=0;entryDy=0;" edge="1" parent="1" source="S8Du6sC95tKZxM511aaH-1" target="S8Du6sC95tKZxM511aaH-40">
          <mxGeometry relative="1" as="geometry" />
        </mxCell>
        <mxCell id="S8Du6sC95tKZxM511aaH-74" style="edgeStyle=orthogonalEdgeStyle;rounded=0;orthogonalLoop=1;jettySize=auto;html=1;entryX=1;entryY=0.5;entryDx=0;entryDy=0;" edge="1" parent="1" source="S8Du6sC95tKZxM511aaH-1" target="S8Du6sC95tKZxM511aaH-72">
          <mxGeometry relative="1" as="geometry" />
        </mxCell>
        <mxCell id="S8Du6sC95tKZxM511aaH-1" value="Shopping_Behavior" style="rounded=0;whiteSpace=wrap;html=1;" vertex="1" parent="1">
          <mxGeometry x="160" y="320" width="120" height="80" as="geometry" />
        </mxCell>
        <mxCell id="S8Du6sC95tKZxM511aaH-78" style="edgeStyle=orthogonalEdgeStyle;rounded=0;orthogonalLoop=1;jettySize=auto;html=1;entryX=1;entryY=0.5;entryDx=0;entryDy=0;" edge="1" parent="1" source="S8Du6sC95tKZxM511aaH-4" target="S8Du6sC95tKZxM511aaH-77">
          <mxGeometry relative="1" as="geometry" />
        </mxCell>
        <mxCell id="S8Du6sC95tKZxM511aaH-79" style="edgeStyle=orthogonalEdgeStyle;rounded=0;orthogonalLoop=1;jettySize=auto;html=1;" edge="1" parent="1" source="S8Du6sC95tKZxM511aaH-4" target="S8Du6sC95tKZxM511aaH-75">
          <mxGeometry relative="1" as="geometry" />
        </mxCell>
        <mxCell id="S8Du6sC95tKZxM511aaH-80" style="edgeStyle=orthogonalEdgeStyle;rounded=0;orthogonalLoop=1;jettySize=auto;html=1;entryX=1;entryY=0.5;entryDx=0;entryDy=0;" edge="1" parent="1" source="S8Du6sC95tKZxM511aaH-4" target="S8Du6sC95tKZxM511aaH-76">
          <mxGeometry relative="1" as="geometry" />
        </mxCell>
        <mxCell id="S8Du6sC95tKZxM511aaH-4" value="Analystic" style="rounded=0;whiteSpace=wrap;html=1;" vertex="1" parent="1">
          <mxGeometry x="-110" width="120" height="80" as="geometry" />
        </mxCell>
        <mxCell id="S8Du6sC95tKZxM511aaH-14" style="edgeStyle=orthogonalEdgeStyle;rounded=0;orthogonalLoop=1;jettySize=auto;html=1;entryX=0;entryY=0.5;entryDx=0;entryDy=0;" edge="1" parent="1" source="S8Du6sC95tKZxM511aaH-7" target="S8Du6sC95tKZxM511aaH-12">
          <mxGeometry relative="1" as="geometry" />
        </mxCell>
        <mxCell id="S8Du6sC95tKZxM511aaH-15" style="edgeStyle=orthogonalEdgeStyle;rounded=0;orthogonalLoop=1;jettySize=auto;html=1;entryX=0;entryY=0.5;entryDx=0;entryDy=0;" edge="1" parent="1" source="S8Du6sC95tKZxM511aaH-7" target="S8Du6sC95tKZxM511aaH-13">
          <mxGeometry relative="1" as="geometry" />
        </mxCell>
        <mxCell id="S8Du6sC95tKZxM511aaH-16" style="edgeStyle=orthogonalEdgeStyle;rounded=0;orthogonalLoop=1;jettySize=auto;html=1;entryX=0;entryY=0.5;entryDx=0;entryDy=0;" edge="1" parent="1" source="S8Du6sC95tKZxM511aaH-7" target="S8Du6sC95tKZxM511aaH-11">
          <mxGeometry relative="1" as="geometry" />
        </mxCell>
        <mxCell id="S8Du6sC95tKZxM511aaH-19" style="edgeStyle=orthogonalEdgeStyle;rounded=0;orthogonalLoop=1;jettySize=auto;html=1;entryX=0;entryY=0.5;entryDx=0;entryDy=0;" edge="1" parent="1" source="S8Du6sC95tKZxM511aaH-7" target="S8Du6sC95tKZxM511aaH-18">
          <mxGeometry relative="1" as="geometry" />
        </mxCell>
        <mxCell id="S8Du6sC95tKZxM511aaH-20" style="edgeStyle=orthogonalEdgeStyle;rounded=0;orthogonalLoop=1;jettySize=auto;html=1;entryX=0;entryY=0.5;entryDx=0;entryDy=0;" edge="1" parent="1" source="S8Du6sC95tKZxM511aaH-7" target="S8Du6sC95tKZxM511aaH-17">
          <mxGeometry relative="1" as="geometry" />
        </mxCell>
        <mxCell id="S8Du6sC95tKZxM511aaH-7" value="Definition" style="rounded=0;whiteSpace=wrap;html=1;" vertex="1" parent="1">
          <mxGeometry x="440" width="120" height="80" as="geometry" />
        </mxCell>
        <mxCell id="S8Du6sC95tKZxM511aaH-30" style="edgeStyle=orthogonalEdgeStyle;rounded=0;orthogonalLoop=1;jettySize=auto;html=1;entryX=0;entryY=0.5;entryDx=0;entryDy=0;" edge="1" parent="1" source="S8Du6sC95tKZxM511aaH-9" target="S8Du6sC95tKZxM511aaH-28">
          <mxGeometry relative="1" as="geometry" />
        </mxCell>
        <mxCell id="S8Du6sC95tKZxM511aaH-31" style="edgeStyle=orthogonalEdgeStyle;rounded=0;orthogonalLoop=1;jettySize=auto;html=1;entryX=0;entryY=0.5;entryDx=0;entryDy=0;" edge="1" parent="1" source="S8Du6sC95tKZxM511aaH-9" target="S8Du6sC95tKZxM511aaH-26">
          <mxGeometry relative="1" as="geometry" />
        </mxCell>
        <mxCell id="S8Du6sC95tKZxM511aaH-32" style="edgeStyle=orthogonalEdgeStyle;rounded=0;orthogonalLoop=1;jettySize=auto;html=1;" edge="1" parent="1" source="S8Du6sC95tKZxM511aaH-9" target="S8Du6sC95tKZxM511aaH-29">
          <mxGeometry relative="1" as="geometry" />
        </mxCell>
        <mxCell id="S8Du6sC95tKZxM511aaH-33" style="edgeStyle=orthogonalEdgeStyle;rounded=0;orthogonalLoop=1;jettySize=auto;html=1;entryX=0;entryY=0.5;entryDx=0;entryDy=0;" edge="1" parent="1" source="S8Du6sC95tKZxM511aaH-9" target="S8Du6sC95tKZxM511aaH-27">
          <mxGeometry relative="1" as="geometry" />
        </mxCell>
        <mxCell id="S8Du6sC95tKZxM511aaH-9" value="Behavior" style="rounded=0;whiteSpace=wrap;html=1;" vertex="1" parent="1">
          <mxGeometry x="440" y="640" width="120" height="80" as="geometry" />
        </mxCell>
        <mxCell id="S8Du6sC95tKZxM511aaH-24" style="edgeStyle=orthogonalEdgeStyle;rounded=0;orthogonalLoop=1;jettySize=auto;html=1;" edge="1" parent="1" source="S8Du6sC95tKZxM511aaH-11" target="S8Du6sC95tKZxM511aaH-18">
          <mxGeometry relative="1" as="geometry" />
        </mxCell>
        <mxCell id="S8Du6sC95tKZxM511aaH-11" value="Experience" style="rounded=0;whiteSpace=wrap;html=1;" vertex="1" parent="1">
          <mxGeometry x="640" y="120" width="120" height="80" as="geometry" />
        </mxCell>
        <mxCell id="S8Du6sC95tKZxM511aaH-22" style="edgeStyle=orthogonalEdgeStyle;rounded=0;orthogonalLoop=1;jettySize=auto;html=1;" edge="1" parent="1" source="S8Du6sC95tKZxM511aaH-12" target="S8Du6sC95tKZxM511aaH-13">
          <mxGeometry relative="1" as="geometry" />
        </mxCell>
        <mxCell id="S8Du6sC95tKZxM511aaH-50" style="edgeStyle=orthogonalEdgeStyle;rounded=0;orthogonalLoop=1;jettySize=auto;html=1;entryX=0;entryY=0.5;entryDx=0;entryDy=0;" edge="1" parent="1" source="S8Du6sC95tKZxM511aaH-12" target="S8Du6sC95tKZxM511aaH-49">
          <mxGeometry relative="1" as="geometry" />
        </mxCell>
        <mxCell id="S8Du6sC95tKZxM511aaH-12" value="Selection" style="rounded=0;whiteSpace=wrap;html=1;" vertex="1" parent="1">
          <mxGeometry x="640" y="-120" width="120" height="80" as="geometry" />
        </mxCell>
        <mxCell id="S8Du6sC95tKZxM511aaH-23" style="edgeStyle=orthogonalEdgeStyle;rounded=0;orthogonalLoop=1;jettySize=auto;html=1;" edge="1" parent="1" source="S8Du6sC95tKZxM511aaH-13" target="S8Du6sC95tKZxM511aaH-11">
          <mxGeometry relative="1" as="geometry" />
        </mxCell>
        <mxCell id="S8Du6sC95tKZxM511aaH-54" style="edgeStyle=orthogonalEdgeStyle;rounded=0;orthogonalLoop=1;jettySize=auto;html=1;entryX=0;entryY=0.5;entryDx=0;entryDy=0;" edge="1" parent="1" source="S8Du6sC95tKZxM511aaH-13" target="S8Du6sC95tKZxM511aaH-53">
          <mxGeometry relative="1" as="geometry" />
        </mxCell>
        <mxCell id="S8Du6sC95tKZxM511aaH-13" value="Shopping" style="rounded=0;whiteSpace=wrap;html=1;" vertex="1" parent="1">
          <mxGeometry x="640" width="120" height="80" as="geometry" />
        </mxCell>
        <mxCell id="S8Du6sC95tKZxM511aaH-21" style="edgeStyle=orthogonalEdgeStyle;rounded=0;orthogonalLoop=1;jettySize=auto;html=1;" edge="1" parent="1" source="S8Du6sC95tKZxM511aaH-17" target="S8Du6sC95tKZxM511aaH-12">
          <mxGeometry relative="1" as="geometry" />
        </mxCell>
        <mxCell id="S8Du6sC95tKZxM511aaH-46" style="edgeStyle=orthogonalEdgeStyle;rounded=0;orthogonalLoop=1;jettySize=auto;html=1;" edge="1" parent="1" source="S8Du6sC95tKZxM511aaH-17" target="S8Du6sC95tKZxM511aaH-43">
          <mxGeometry relative="1" as="geometry" />
        </mxCell>
        <mxCell id="S8Du6sC95tKZxM511aaH-17" value="Searching" style="rounded=0;whiteSpace=wrap;html=1;" vertex="1" parent="1">
          <mxGeometry x="640" y="-240" width="120" height="80" as="geometry" />
        </mxCell>
        <mxCell id="S8Du6sC95tKZxM511aaH-18" value="Reaction" style="rounded=0;whiteSpace=wrap;html=1;" vertex="1" parent="1">
          <mxGeometry x="640" y="240" width="120" height="80" as="geometry" />
        </mxCell>
        <mxCell id="S8Du6sC95tKZxM511aaH-26" value="Dissonace-Reducing" style="rounded=0;whiteSpace=wrap;html=1;" vertex="1" parent="1">
          <mxGeometry x="640" y="560" width="120" height="80" as="geometry" />
        </mxCell>
        <mxCell id="S8Du6sC95tKZxM511aaH-27" value="Variety-Seeking" style="rounded=0;whiteSpace=wrap;html=1;" vertex="1" parent="1">
          <mxGeometry x="640" y="840" width="120" height="80" as="geometry" />
        </mxCell>
        <mxCell id="S8Du6sC95tKZxM511aaH-28" value="Complex" style="rounded=0;whiteSpace=wrap;html=1;" vertex="1" parent="1">
          <mxGeometry x="640" y="440" width="120" height="80" as="geometry" />
        </mxCell>
        <mxCell id="S8Du6sC95tKZxM511aaH-29" value="Habitual" style="rounded=0;whiteSpace=wrap;html=1;" vertex="1" parent="1">
          <mxGeometry x="640" y="720" width="120" height="80" as="geometry" />
        </mxCell>
        <mxCell id="S8Du6sC95tKZxM511aaH-82" style="edgeStyle=orthogonalEdgeStyle;rounded=0;orthogonalLoop=1;jettySize=auto;html=1;entryX=1;entryY=0.5;entryDx=0;entryDy=0;" edge="1" parent="1" source="S8Du6sC95tKZxM511aaH-40" target="S8Du6sC95tKZxM511aaH-81">
          <mxGeometry relative="1" as="geometry" />
        </mxCell>
        <mxCell id="S8Du6sC95tKZxM511aaH-84" style="edgeStyle=orthogonalEdgeStyle;rounded=0;orthogonalLoop=1;jettySize=auto;html=1;entryX=1;entryY=0.5;entryDx=0;entryDy=0;" edge="1" parent="1" source="S8Du6sC95tKZxM511aaH-40" target="S8Du6sC95tKZxM511aaH-83">
          <mxGeometry relative="1" as="geometry" />
        </mxCell>
        <mxCell id="S8Du6sC95tKZxM511aaH-40" value="Operations &amp;amp; CX" style="rounded=0;whiteSpace=wrap;html=1;" vertex="1" parent="1">
          <mxGeometry x="-110" y="320" width="120" height="80" as="geometry" />
        </mxCell>
        <mxCell id="S8Du6sC95tKZxM511aaH-58" style="edgeStyle=orthogonalEdgeStyle;rounded=0;orthogonalLoop=1;jettySize=auto;html=1;entryX=0;entryY=0.5;entryDx=0;entryDy=0;" edge="1" parent="1" source="S8Du6sC95tKZxM511aaH-43" target="S8Du6sC95tKZxM511aaH-57">
          <mxGeometry relative="1" as="geometry" />
        </mxCell>
        <mxCell id="S8Du6sC95tKZxM511aaH-43" value="Travel Route" style="rounded=0;whiteSpace=wrap;html=1;" vertex="1" parent="1">
          <mxGeometry x="850" y="-240" width="120" height="80" as="geometry" />
        </mxCell>
        <mxCell id="S8Du6sC95tKZxM511aaH-65" style="edgeStyle=orthogonalEdgeStyle;rounded=0;orthogonalLoop=1;jettySize=auto;html=1;entryX=0;entryY=0.5;entryDx=0;entryDy=0;" edge="1" parent="1" source="S8Du6sC95tKZxM511aaH-49" target="S8Du6sC95tKZxM511aaH-61">
          <mxGeometry relative="1" as="geometry" />
        </mxCell>
        <mxCell id="S8Du6sC95tKZxM511aaH-49" value="Tme Spent" style="rounded=0;whiteSpace=wrap;html=1;" vertex="1" parent="1">
          <mxGeometry x="850" y="-120" width="120" height="80" as="geometry" />
        </mxCell>
        <mxCell id="S8Du6sC95tKZxM511aaH-66" style="edgeStyle=orthogonalEdgeStyle;rounded=0;orthogonalLoop=1;jettySize=auto;html=1;entryX=0;entryY=0.5;entryDx=0;entryDy=0;" edge="1" parent="1" source="S8Du6sC95tKZxM511aaH-53" target="S8Du6sC95tKZxM511aaH-64">
          <mxGeometry relative="1" as="geometry" />
        </mxCell>
        <mxCell id="S8Du6sC95tKZxM511aaH-53" value="Trollr, bag" style="rounded=0;whiteSpace=wrap;html=1;" vertex="1" parent="1">
          <mxGeometry x="850" width="120" height="80" as="geometry" />
        </mxCell>
        <mxCell id="S8Du6sC95tKZxM511aaH-57" value="Heatmap" style="rounded=0;whiteSpace=wrap;html=1;" vertex="1" parent="1">
          <mxGeometry x="1080" y="-240" width="120" height="80" as="geometry" />
        </mxCell>
        <mxCell id="S8Du6sC95tKZxM511aaH-61" value="Dwell TIme" style="rounded=0;whiteSpace=wrap;html=1;" vertex="1" parent="1">
          <mxGeometry x="1080" y="-120" width="120" height="80" as="geometry" />
        </mxCell>
        <mxCell id="S8Du6sC95tKZxM511aaH-64" value="Detection" style="rounded=0;whiteSpace=wrap;html=1;" vertex="1" parent="1">
          <mxGeometry x="1080" width="120" height="80" as="geometry" />
        </mxCell>
        <mxCell id="S8Du6sC95tKZxM511aaH-69" value="&lt;font style=&quot;font-size: 30px;&quot;&gt;Case&lt;/font&gt;" style="text;html=1;align=center;verticalAlign=middle;whiteSpace=wrap;rounded=0;" vertex="1" parent="1">
          <mxGeometry x="850" y="-330" width="120" height="50" as="geometry" />
        </mxCell>
        <mxCell id="S8Du6sC95tKZxM511aaH-71" value="&lt;span style=&quot;font-size: 30px;&quot;&gt;Solution&lt;/span&gt;" style="text;html=1;align=center;verticalAlign=middle;whiteSpace=wrap;rounded=0;" vertex="1" parent="1">
          <mxGeometry x="1080" y="120" width="120" height="50" as="geometry" />
        </mxCell>
        <mxCell id="S8Du6sC95tKZxM511aaH-86" style="edgeStyle=orthogonalEdgeStyle;rounded=0;orthogonalLoop=1;jettySize=auto;html=1;" edge="1" parent="1" source="S8Du6sC95tKZxM511aaH-72" target="S8Du6sC95tKZxM511aaH-85">
          <mxGeometry relative="1" as="geometry" />
        </mxCell>
        <mxCell id="S8Du6sC95tKZxM511aaH-88" style="edgeStyle=orthogonalEdgeStyle;rounded=0;orthogonalLoop=1;jettySize=auto;html=1;entryX=1;entryY=0.5;entryDx=0;entryDy=0;" edge="1" parent="1" source="S8Du6sC95tKZxM511aaH-72" target="S8Du6sC95tKZxM511aaH-87">
          <mxGeometry relative="1" as="geometry" />
        </mxCell>
        <mxCell id="S8Du6sC95tKZxM511aaH-72" value="Loss Prevention" style="rounded=0;whiteSpace=wrap;html=1;" vertex="1" parent="1">
          <mxGeometry x="-120" y="640" width="120" height="80" as="geometry" />
        </mxCell>
        <mxCell id="S8Du6sC95tKZxM511aaH-75" value="Đánh giá hiệu quả trưng bày" style="rounded=0;whiteSpace=wrap;html=1;" vertex="1" parent="1">
          <mxGeometry x="-310" width="120" height="80" as="geometry" />
        </mxCell>
        <mxCell id="S8Du6sC95tKZxM511aaH-76" value="Nhận dạng người" style="rounded=0;whiteSpace=wrap;html=1;" vertex="1" parent="1">
          <mxGeometry x="-310" y="120" width="120" height="80" as="geometry" />
        </mxCell>
        <mxCell id="S8Du6sC95tKZxM511aaH-77" value="Tối ưu bố cục" style="rounded=0;whiteSpace=wrap;html=1;" vertex="1" parent="1">
          <mxGeometry x="-310" y="-120" width="120" height="80" as="geometry" />
        </mxCell>
        <mxCell id="S8Du6sC95tKZxM511aaH-81" value="Tối ưu hàng hóa" style="rounded=0;whiteSpace=wrap;html=1;" vertex="1" parent="1">
          <mxGeometry x="-310" y="240" width="120" height="80" as="geometry" />
        </mxCell>
        <mxCell id="S8Du6sC95tKZxM511aaH-83" value="Tối ưu nhân sự" style="rounded=0;whiteSpace=wrap;html=1;" vertex="1" parent="1">
          <mxGeometry x="-310" y="400" width="120" height="80" as="geometry" />
        </mxCell>
        <mxCell id="S8Du6sC95tKZxM511aaH-85" value="Ngăn ngừa trộm cắp" style="rounded=0;whiteSpace=wrap;html=1;" vertex="1" parent="1">
          <mxGeometry x="-310" y="560" width="120" height="80" as="geometry" />
        </mxCell>
        <mxCell id="S8Du6sC95tKZxM511aaH-87" value="An toàn vận hành" style="rounded=0;whiteSpace=wrap;html=1;" vertex="1" parent="1">
          <mxGeometry x="-310" y="730" width="120" height="80" as="geometry" />
        </mxCell>
      </root>
    </mxGraphModel>
  </diagram>
</mxfile>
